HIERARCHY
ROOT Hips
{
	OFFSET	0.00	0.00	0.00
	CHANNELS 6 Xposition Yposition Zposition Zrotation Xrotation Yrotation
	JOINT LeftUpLeg
	{
		OFFSET	 0.126116	-0.065224	 0.014019
		CHANNELS 3 Zrotation Xrotation Yrotation
		JOINT LeftLeg
		{
			OFFSET	 0.000000	 0.569914	 0.000000
			CHANNELS 3 Zrotation Xrotation Yrotation
			JOINT LeftFoot
			{
				OFFSET	 0.000000	 0.544423	 0.000000
				CHANNELS 3 Zrotation Xrotation Yrotation
				JOINT LeftToeBase
				{
					OFFSET	 0.000000	 0.207117	 0.000000
					CHANNELS 3 Zrotation Xrotation Yrotation
					End Site
					{
						OFFSET	 0.000000	 0.207117	 0.000000
					}
				}
			}
		}
	}
	JOINT RightUpLeg
	{
		OFFSET	-0.124023	-0.065224	 0.008373
		CHANNELS 3 Zrotation Xrotation Yrotation
		JOINT RightLeg
		{
			OFFSET	 0.000000	 0.570047	 0.000000
			CHANNELS 3 Zrotation Xrotation Yrotation
			JOINT RightFoot
			{
				OFFSET	 0.000000	 0.544354	 0.000000
				CHANNELS 3 Zrotation Xrotation Yrotation
				JOINT RightToeBase
				{
					OFFSET	 0.000000	 0.207540	 0.000000
					CHANNELS 3 Zrotation Xrotation Yrotation
					End Site
					{
						OFFSET	 0.000000	 0.207540	 0.000000
					}
				}
			}
		}
	}
	JOINT Spine
	{
		OFFSET	 0.000184	 0.117403	 0.007763
		CHANNELS 3 Zrotation Xrotation Yrotation
		JOINT Spine1
		{
			OFFSET	 0.000000	 0.137269	 0.000000
			CHANNELS 3 Zrotation Xrotation Yrotation
			JOINT Spine2
			{
				OFFSET	 0.000000	 0.156879	 0.000000
				CHANNELS 3 Zrotation Xrotation Yrotation
				JOINT LeftShoulder
				{
					OFFSET	 0.080501	 0.160143	 0.002496
					CHANNELS 3 Zrotation Xrotation Yrotation
					JOINT LeftArm
					{
						OFFSET	 0.000000	 0.164363	 0.000000
						CHANNELS 3 Zrotation Xrotation Yrotation
						JOINT LeftForeArm
						{
							OFFSET	 0.000000	 0.364576	 0.000000
							CHANNELS 3 Zrotation Xrotation Yrotation
							JOINT LeftHand
							{
								OFFSET	 0.000000	 0.360812	 0.000000
								CHANNELS 3 Zrotation Xrotation Yrotation
								JOINT LeftHandIndex1
								{
									OFFSET	 0.000000	 0.086006	 0.000000
									CHANNELS 3 Zrotation Xrotation Yrotation
									JOINT LeftHandIndex2
									{
										OFFSET	 0.000000	 0.047237	 0.000000
										CHANNELS 3 Zrotation Xrotation Yrotation
										JOINT LeftHandIndex3
										{
											OFFSET	-0.004284	 0.038165	 0.000551
											CHANNELS 3 Zrotation Xrotation Yrotation
											End Site
											{
												OFFSET	-0.004284	 0.038165	 0.000551
											}
										}
									}
								}
							}
						}
					}
				}
				JOINT Neck
				{
					OFFSET	 0.000000	 0.176489	 0.000000
					CHANNELS 3 Zrotation Xrotation Yrotation
					JOINT Head
					{
						OFFSET	 0.000000	 0.077941	 0.001747
						CHANNELS 3 Zrotation Xrotation Yrotation
						End Site
						{
							OFFSET	 0.000000	 0.077941	 0.001747
						}
					}
				}
				JOINT RightShoulder
				{
					OFFSET	-0.080363	 0.159706	-0.000306
					CHANNELS 3 Zrotation Xrotation Yrotation
					JOINT RightArm
					{
						OFFSET	 0.000000	 0.164196	 0.000000
						CHANNELS 3 Zrotation Xrotation Yrotation
						JOINT RightForeArm
						{
							OFFSET	 0.000000	 0.365611	 0.000000
							CHANNELS 3 Zrotation Xrotation Yrotation
							JOINT RightHand
							{
								OFFSET	 0.000000	 0.360648	 0.000000
								CHANNELS 3 Zrotation Xrotation Yrotation
								JOINT RightHandIndex1
								{
									OFFSET	 0.000000	 0.069977	 0.000000
									CHANNELS 3 Zrotation Xrotation Yrotation
									JOINT RightHandIndex2
									{
										OFFSET	 0.000000	 0.052305	 0.000000
										CHANNELS 3 Zrotation Xrotation Yrotation
										JOINT RightHandIndex3
										{
											OFFSET	 0.009002	 0.042196	 0.000782
											CHANNELS 3 Zrotation Xrotation Yrotation
											End Site
											{
												OFFSET	 0.009002	 0.042196	 0.000782
											}
										}
									}
								}
							}
						}
					}
				}
			}
		}
	}
}
MOTION
Frames:    13
Frame Time: 0.03333334
 0.425598	 1.247672	 0.167557	 0.532796	-2.455659	-177.244700	 177.161700	 10.229210	-1.420489	 7.398932	-25.861650	 7.311917	 9.900888	 79.501940	-7.082949	 1.292262	 28.425850	-2.713146	 178.552900	-4.113901	 3.633848	-2.326807	-11.927030	 0.758739	 4.622364	 79.669360	-8.514935	-1.288183	 28.361890	 2.710176	-0.099899	 6.580585	-2.052948	 0.614415	-6.819190	-1.142438	 0.012963	 7.867733	 2.908145	-117.563300	-0.811623	 89.944280	 2.495552	-0.431881	-7.354345	 27.812490	-2.174365	 34.960020	-12.369840	-2.844721	-4.342119	-6.580301	 5.266122	 0.000000	 0.000000	 0.000000	 0.000000	 0.000000	 0.000000	 0.000000	 4.867461	 27.343850	 1.652932	-3.993875	-16.282400	 0.863974	 116.451800	-0.485506	-90.553490	-5.196513	 3.051318	 19.759870	-18.336910	 0.430031	-56.925490	-6.903519	-17.720210	 10.305320	 15.208500	 5.323790	 0.000000	 0.000000	 0.000000	 0.000000	 0.000000	 0.000000	 0.000000
 0.433246	 1.266155	 0.363462	 0.783268	-5.667436	-176.918500	 178.060300	 13.369590	-0.865266	 5.224395	-18.919550	 7.254000	 7.840741	 71.569210	-4.592450	 1.292262	 28.425850	-2.713146	 179.127100	 13.319100	 3.266302	-4.022948	-20.052170	-0.798877	-0.824734	 72.679240	-2.726373	-1.288183	 28.361890	 2.710176	-0.166743	 8.714128	-1.750602	 0.395099	-9.170060	-1.284035	 0.303771	 13.512170	 2.781096	-121.008400	-1.845534	 89.443760	 2.068715	 6.366898	 3.069140	 40.731160	-3.039415	 27.720380	-13.866280	-8.007506	 0.616736	-6.580301	 5.266122	 0.000000	 0.000000	 0.000000	 0.000000	 0.000000	 0.000000	 0.000000	 7.534543	 34.839610	-0.622287	-4.254161	-20.025580	 1.316444	 121.888000	-1.956133	-89.964100	-5.850613	 9.844879	 15.210480	-30.533040	 0.694400	-52.343490	-5.893620	-14.645580	-1.928425	 15.208500	 5.323790	 0.000000	 0.000000	 0.000000	 0.000000	 0.000000	 0.000000	 0.000000
 0.454226	 1.188796	 0.515685	-1.057530	-29.300540	-174.495500	 165.201500	 56.290090	 9.769855	 12.619230	-39.433010	 21.934770	 31.778040	 68.827280	-33.072560	 1.292262	 28.425850	-2.713146	 172.679100	 58.900330	 8.689338	-10.852920	-44.409930	-15.356140	-32.906680	 71.625930	 32.399930	-1.288183	 28.361890	 2.710176	 0.358411	 13.201940	 0.117344	 0.653549	 4.791144	-0.011427	 0.958501	 10.990550	-0.114038	-120.731200	 17.771910	 99.105950	 23.767610	 13.115580	 2.449587	 48.247050	-3.473987	 20.359900	 0.297462	-43.157070	 0.182524	-6.580301	 5.266122	 0.000000	 0.000000	 0.000000	 0.000000	 0.000000	 0.000000	 0.000000	 5.370769	 36.117630	-3.264167	-1.861725	-34.485680	-0.301247	 123.967000	 18.363310	-100.664700	-25.147300	 17.465320	 15.279980	-41.739010	 0.909938	-33.090100	-11.917030	-43.531480	-5.427359	 15.208500	 5.323790	 0.000000	 0.000000	 0.000000	 0.000000	 0.000000	 0.000000	 0.000000
 0.460069	 1.161661	 0.532049	-3.409486	-32.387920	-175.559000	 158.429600	 62.477740	 14.111070	 14.890000	-44.046890	 25.329970	 36.423930	 68.914440	-38.459530	 1.292262	 28.425850	-2.713146	 168.556600	 66.465740	 10.424220	-13.429580	-50.389400	-20.933580	-43.243760	 70.542720	 43.645000	-1.288183	 28.361890	 2.710176	 0.171819	 14.070350	 0.190774	 0.722238	 8.796297	 0.015285	 0.181226	 9.596358	-0.351367	-121.100400	 20.203450	 100.402100	 27.680930	 8.309642	-0.212926	 46.928780	-3.401999	 19.111650	 1.238341	-48.228580	 0.724013	-6.580301	 5.266122	 0.000000	 0.000000	 0.000000	 0.000000	 0.000000	 0.000000	 0.000000	 7.215402	 38.978150	-4.302520	-2.422128	-39.721820	-0.206305	 127.576900	 22.229950	-103.746300	-27.328320	 10.209610	 16.096880	-40.499020	 0.887652	-29.942610	-15.351970	-48.259340	-8.278780	 15.208500	 5.323790	 0.000000	 0.000000	 0.000000	 0.000000	 0.000000	 0.000000	 0.000000
 0.470776	 0.928449	 0.573769	-9.321433	-37.491230	 179.272400	 57.757720	 79.080310	 108.336000	 71.199760	-74.324230	 76.015820	 64.669020	 78.534460	-68.458160	 1.292262	 28.425850	-2.713146	-10.856050	 81.088290	-175.520600	-91.839790	-79.114580	-98.036310	-74.669530	 75.432350	 76.779150	-1.288183	 28.361890	 2.710176	-0.576629	 15.748670	-1.522535	-1.152886	 15.373470	-2.091260	-1.980827	 5.508581	-1.322759	-124.600300	 34.157890	 108.934200	 33.943810	-6.722583	 10.803850	 35.626440	-2.713899	-42.509530	 35.881000	-49.137060	 38.246290	-6.580301	 5.266122	 0.000000	 0.000000	 0.000000	 0.000000	 0.000000	 0.000000	 0.000000	 11.801270	 41.153990	-4.988794	-7.840837	-51.231480	-1.344629	 124.263000	 32.139260	-108.125100	-39.319560	-7.012460	 11.956920	-34.815280	 0.780372	-5.353330	-31.593490	-52.228360	-24.305680	 15.208500	 5.323790	 0.000000	 0.000000	 0.000000	 0.000000	 0.000000	 0.000000	 0.000000
 0.467701	 0.942502	 0.574273	-9.623606	-36.476020	 179.053600	 68.438690	 79.800450	 97.186110	 64.061780	-73.541970	 68.143090	 59.361680	 78.713130	-62.755150	 1.292262	 28.425850	-2.713146	-9.799061	 83.149750	-177.212300	-81.989550	-79.015420	-87.737210	-70.915220	 75.829410	 73.076170	-1.288183	 28.361890	 2.710176	-0.455134	 15.297380	-1.453927	-1.029222	 16.515710	-2.104090	-2.082849	 4.313452	-1.521328	-123.996000	 33.343820	 108.317100	 35.039570	-8.286634	 13.066170	 37.875750	-2.860166	-41.716460	 38.903630	-50.931250	 37.022760	-6.580301	 5.266122	 0.000000	 0.000000	 0.000000	 0.000000	 0.000000	 0.000000	 0.000000	 10.882620	 37.697190	-4.617523	-7.043078	-48.084090	-1.049536	 124.478000	 31.597170	-107.898100	-40.531280	-6.612057	 12.154340	-36.023110	 0.803945	-5.841750	-33.466100	-54.676330	-25.982610	 15.208500	 5.323790	 0.000000	 0.000000	 0.000000	 0.000000	 0.000000	 0.000000	 0.000000
 0.460996	 0.982233	 0.572551	-9.046122	-34.189440	 179.511600	 102.376300	 79.618270	 63.467720	 48.641450	-70.509460	 52.406190	 50.615960	 77.954190	-53.355350	 1.292262	 28.425850	-2.713146	 9.440924	 89.178380	 163.814900	-57.485640	-77.159720	-63.633770	-65.004660	 75.365510	 67.236100	-1.288183	 28.361890	 2.710176	-0.304611	 14.496780	-1.302744	-0.718661	 16.037960	-1.977192	-1.911129	 3.071435	-1.657369	-123.569500	 31.584880	 107.239700	 34.148970	-4.826456	 12.412430	 41.141740	-3.064582	-40.942070	 37.978540	-49.348420	 32.939850	-6.580301	 5.266122	 0.000000	 0.000000	 0.000000	 0.000000	 0.000000	 0.000000	 0.000000	 7.998414	 31.103070	-3.340558	-5.021484	-41.805480	-0.612439	 124.681700	 30.042510	-107.119300	-39.047850	-4.041696	 10.978700	-39.438750	 0.868310	-5.885431	-34.463990	-54.405910	-25.850150	 15.208500	 5.323790	 0.000000	 0.000000	 0.000000	 0.000000	 0.000000	 0.000000	 0.000000
 0.450675	 1.047632	 0.566214	-7.514505	-30.575470	-179.371200	 139.350000	 73.430920	 27.592530	 31.787060	-63.237180	 35.846240	 39.472560	 75.814730	-41.322590	 1.292262	 28.425850	-2.713146	 168.209400	 80.097680	 6.335418	-32.852570	-70.490160	-40.560760	-57.737460	 73.428550	 60.101100	-1.288183	 28.361890	 2.710176	-0.014427	 12.946800	-1.234265	-0.302747	 14.591590	-1.787351	-1.316919	 1.057765	-1.694759	-121.712800	 28.449500	 104.873800	 31.771780	 4.915616	 11.177480	 45.596190	-3.327224	-39.158680	 37.109360	-46.234390	 29.081220	-6.580301	 5.266122	 0.000000	 0.000000	 0.000000	 0.000000	 0.000000	 0.000000	 0.000000	 3.078724	 19.537360	-1.598314	-1.938208	-31.124410	-0.517920	 124.550500	 27.348760	-105.605400	-35.090880	 1.027189	 5.581262	-45.490000	 0.974685	-3.814486	-37.423690	-51.913620	-27.133170	 15.208500	 5.323790	 0.000000	 0.000000	 0.000000	 0.000000	 0.000000	 0.000000	 0.000000
 0.442879	 1.110600	 0.552169	-5.305540	-26.554910	-177.724900	 155.560500	 63.792480	 13.473340	 21.627630	-54.216840	 26.842750	 32.426770	 72.912690	-33.615010	 1.292262	 28.425850	-2.713146	 171.432900	 68.786700	 5.308443	-21.241230	-62.052890	-30.230230	-51.847100	 71.444930	 54.246930	-1.288183	 28.361890	 2.710176	 0.445523	 10.650210	-1.248279	 0.403800	 14.758660	-1.512631	-0.581517	-3.155081	-1.697177	-114.633100	 23.120200	 100.231400	 32.077550	 18.620010	 8.365335	 49.982580	-3.566116	-36.267150	 37.610460	-41.508120	 25.947850	-6.580301	 5.266122	 0.000000	 0.000000	 0.000000	 0.000000	 0.000000	 0.000000	 0.000000	 0.414109	 2.400283	-1.001637	-0.487731	-15.766690	-0.651827	 120.265400	 23.551030	-102.304200	-33.790170	 9.154905	 2.079455	-52.389070	 1.082784	-4.403094	-39.081960	-49.367500	-27.641670	 15.208500	 5.323790	 0.000000	 0.000000	 0.000000	 0.000000	 0.000000	 0.000000	 0.000000
 0.439870	 1.161954	 0.527104	-2.532219	-21.474290	-175.692300	 164.318800	 52.829390	 8.057663	 15.901860	-45.884530	 22.455170	 29.263730	 70.364810	-30.073040	 1.292262	 28.425850	-2.713146	 173.329200	 56.650670	 6.410069	-15.167490	-53.698250	-21.776960	-42.032070	 72.143250	 43.350470	-1.288183	 28.361890	 2.710176	 0.818486	 7.964729	-1.124743	 1.340135	 15.441720	-1.160162	 0.167002	-8.339017	-1.631171	-116.480400	 18.547540	 98.604480	 29.539960	 24.248420	 14.344290	 54.069600	-3.769953	-31.210490	 37.410440	-36.780250	 24.170240	-6.580301	 5.266122	 0.000000	 0.000000	 0.000000	 0.000000	 0.000000	 0.000000	 0.000000	-1.750135	-2.546586	-1.071431	 0.468048	-10.764820	-0.978495	 120.535800	 18.661580	-99.966790	-30.559500	 15.906530	-1.861986	-58.161470	 1.161134	-7.306234	-37.368810	-44.538270	-26.288980	 15.208500	 5.323790	 0.000000	 0.000000	 0.000000	 0.000000	 0.000000	 0.000000	 0.000000
 0.439146	 1.295859	 0.388042	 0.378739	-2.230710	-174.663300	 178.429200	 8.039835	 0.503477	 3.587638	-13.254240	 5.251309	 2.100010	 64.494380	 1.744364	 1.292262	 28.425850	-2.713146	 178.313500	 7.924054	 6.141307	-2.929939	-14.892300	-0.301107	-0.848009	 65.767350	-3.600483	-1.288183	 28.361890	 2.710176	-0.004287	 1.561023	-0.139649	 0.057636	-1.158546	-0.440240	 0.105275	-5.680862	-1.035688	-121.938100	 2.938183	 91.844090	 22.071710	 30.694000	 31.387230	 67.170770	-4.289212	-14.180810	 12.267160	-7.770057	 7.448218	-6.580301	 5.266122	 0.000000	 0.000000	 0.000000	 0.000000	 0.000000	 0.000000	 0.000000	 0.423544	 6.937413	-1.459662	 0.274387	-5.295305	-0.784740	 123.471500	 4.914710	-93.551520	-22.869250	 31.668640	-11.689800	-68.775520	 1.274019	-15.652070	-14.870790	-8.189777	-7.235908	 15.208500	 5.323790	 0.000000	 0.000000	 0.000000	 0.000000	 0.000000	 0.000000	 0.000000
 0.426537	 1.298698	 0.378760	 0.141293	-0.335710	-176.399900	 178.079700	 5.318840	-1.196057	 3.342447	-12.384970	 4.141135	 0.771644	 63.716800	 4.047660	 1.292262	 28.425850	-2.713146	 177.800100	 5.145557	 4.371424	-2.613931	-13.390880	-0.038800	 0.108097	 64.718650	-4.171991	-1.288183	 28.361890	 2.710176	-0.101365	 1.228251	-0.158753	 0.242692	 0.108370	-0.284179	-0.121253	-7.375382	-0.274580	-121.182100	 3.385386	 92.033340	 18.771390	 32.120940	 33.112390	 68.464610	-4.328710	-14.083590	 11.859900	-3.255098	 8.097515	-6.580301	 5.266122	 0.000000	 0.000000	 0.000000	 0.000000	 0.000000	 0.000000	 0.000000	 0.772580	 3.538725	-0.951004	-0.983321	-3.532074	-0.552810	 122.866500	 5.128781	-93.607590	-21.746190	 32.339640	-13.688990	-68.579700	 1.261413	-15.116270	-15.581980	-1.666908	-8.484195	 15.208500	 5.323790	 0.000000	 0.000000	 0.000000	 0.000000	 0.000000	 0.000000	 0.000000
 0.426581	 1.282661	 0.378885	 0.007526	-0.103222	-176.418300	 176.746800	 9.959332	-1.097324	 6.268276	-22.342290	 4.998939	-0.287018	 68.935160	 4.109350	 1.292262	 28.425850	-2.713146	 178.222100	 9.791330	 4.289438	-4.754030	-23.325310	-0.746075	 1.274250	 69.839200	-4.309979	-1.288183	 28.361890	 2.710176	-0.189696	 1.592284	-0.146309	 0.054807	-0.200670	-0.278608	-0.022040	-6.522759	-0.275058	-121.197700	 3.600061	 92.040000	 19.483940	 33.248230	 32.998650	 64.684530	-4.276298	-14.400810	 14.353810	-3.070516	 8.515027	-6.580301	 5.266122	 0.000000	 0.000000	 0.000000	 0.000000	 0.000000	 0.000000	 0.000000	 0.781530	 3.455148	-0.938255	-1.013731	-3.394177	-0.547245	 122.892500	 5.343060	-93.612680	-22.269300	 33.137800	-13.731680	-65.317120	 1.150295	-15.133190	-17.804340	-2.600047	-9.136152	 15.208500	 5.323790	 0.000000	 0.000000	 0.000000	 0.000000	 0.000000	 0.000000	 0.000000
